<svg width="40" height="40" viewBox="0 0 40 40" fill="none" xmlns="http://www.w3.org/2000/svg">
<g id="Group 38820">
<rect id="Rectangle 4798" width="40" height="40" rx="4" fill="#E1E1E1" fill-opacity="0.5"/>
<path id="Union" fill-rule="evenodd" clip-rule="evenodd" d="M24.4613 25.736C24.8133 26.0879 25.384 26.0879 25.736 25.736C26.088 25.384 26.088 24.8133 25.736 24.4613L21.2747 20L25.736 15.5387C26.0879 15.1867 26.0879 14.616 25.736 14.264C25.384 13.9121 24.8133 13.9121 24.4613 14.264L20 18.7253L15.5387 14.264C15.1867 13.912 14.616 13.912 14.264 14.264C13.912 14.616 13.912 15.1867 14.264 15.5387L18.7253 20L14.264 24.4613C13.912 24.8133 13.912 25.384 14.264 25.736C14.616 26.088 15.1867 26.088 15.5387 25.736L20 21.2747L24.4613 25.736Z" fill="#232323"/>
</g>
</svg>
