<svg width="16" height="18" viewBox="0 0 16 18" fill="none" xmlns="http://www.w3.org/2000/svg">
<g id="calendar">
<path id="combo sape" fill-rule="evenodd" clip-rule="evenodd" d="M4.33735 0C4.69667 0 4.98795 0.291285 4.98795 0.650602V1.95181H10.6265V0.650602C10.6265 0.291285 10.9178 0 11.2771 0C11.6364 0 11.9277 0.291285 11.9277 0.650602V1.96389C13.9904 2.12368 15.6145 3.84809 15.6145 5.95181V6.07219H0V5.95181C0 3.84809 1.62402 2.12368 3.68675 1.96389V0.650602C3.68675 0.291285 3.97803 0 4.33735 0ZM0 7.3734H15.6145V14C15.6145 16.2091 13.8236 18 11.6145 18H4C1.79086 18 0 16.2091 0 14V7.3734Z" fill="#969696"/>
</g>
</svg>
